<svg xmlns="http://www.w3.org/2000/svg" viewBox="0 0 1920 1080">
<defs>
<style>
.cls-1,.cls-3{
    fill:none;stroke-miterlimit:10;
    }
    .cls-1{
        stroke:#2e00e9;
        }
    .cls-2{font-size:60px;font-family:Norse;}
    .cls-3{stroke:#000;stroke-width:3px;}
    </style>
    </defs>

    <g id="continents">
    <path id="chinoise" class="cls-1" d="M953.5,694.5a17.68,17.68,0,0,1-2-11v-4a5.82,5.82,0,0,0,2-3,6.14,6.14,0,0,0-1-5l-9-9-3-6v-5c.33-3,.67-6,1-9,.33-2,.67-4,1-6l-5-7a11.4,11.4,0,0,1-1-1.23,10.33,10.33,0,0,1-1-1.77,11.47,11.47,0,0,1-1-4c0-1-.08-2.35,0-4,.16-3.16.58-4.22,0-6a5.68,5.68,0,0,0-2-3c-.65-.46-1.16-.56-3-1-.91-.22-2.28-.55-4-1l-8,2a12,12,0,0,1-3-3c-.92-1.33-2.19-3.17-1.84-5.26s2.31-3.94,4.84-4.74l6-1c.8.31,2.62.87,4,0,1-.6,1.3-1.74,2-4,.48-1.57.46-2.1,1-4,.36-1.28.74-2.32,1-3a2.58,2.58,0,0,0,1-2c-.08-.59-.53-1-2-2-.78-.55-1.79-1.23-3-2a6.23,6.23,0,0,1-2.29-3.12,7.33,7.33,0,0,1,0-3.45c.62-4.16,1.53-5.17,1.25-7.43a8.36,8.36,0,0,0-1-3l-4-2a20.93,20.93,0,0,1-9-13l-15-18a4.61,4.61,0,0,1-4,1v7l-1,34v5s-4,3-4,7-11,3-12,9a59.51,59.51,0,0,0-1,8l-8,3h-17s-6,5-6,8l-6,3h-16l-3,1v2s-5,2-5,6-1,3-1,3l-8,10-5,17-12,10-5,4-4,9s-3,4-1,8-3,11-3,11l-5,4-5,4-4,1-5,3-7,5-2,1-1,4s-1,4-4,4-9-2-9-2-2-4-6-2a61.31,61.31,0,0,0-8,5l-5,3-1,1,1,5,2,3,2,5,2,5,1,1,4,2h1.21l.79-4s2-5,8-2c0,0,4,3,3,4s1,6,1,6,8,4,7,9l1,7,2,5s6,1,6,2,4,2,4,2v6s4,2,2,5-6-1-6-1v3l4,2,13,7a11.61,11.61,0,0,1,6,10l3,6,3,4,6,5,7,3s10,2,11,3,2-2,7,9l6,10,5,10v8.29l7,10.71s-1,5.37,0,8.18,6,.82,6,.82l3-1a2.94,2.94,0,0,0,3-3c0-3,11-9,11-9l8-18s3-15,11-16l2,2,6-4s5,5,8,4,8,1,8,1,9,0,7-5l3-8,3-8s-5-18.71,0-20.85a27.81,27.81,0,0,0,8-5.15l4.75-6,1.25-7,5-2,5-6-3-10,1-4,11-6v-9.41l-4-8.59,4-5,4-16,6-11Zm-144,69a14.63,14.63,0,0,1-3-5c-3-1-2-5,2-7s2-7,2-7,0-4,1-4,5-3,5-3a32.24,32.24,0,0,0,6,2c4,1,2,7,2,7a14.09,14.09,0,0,0-3,5,26.39,26.39,0,0,0-1,7l-3,3S811.5,765.5,809.5,763.5Zm28,44-8,5-3-2L825,807s-5.5-2.52-6.5-2.52-2-9-2-9l-4-5a8,8,0,0,1,0-3,8.19,8.19,0,0,1,2.38-4.3c1.38-3.29,8.62-1.7,8.62-1.7l3,4h7c3,0,4,8,3,10.93s1,7.37,1,7.37Zm14-36c-1.09,3.84-7.53,6.79-8,7-.3-2.28-.33-3.15-1-4a3.21,3.21,0,0,0-.57-.55,4.47,4.47,0,0,1-.43-.45c-.13-.15-.22-.23-.39-.4-.55-.52-1.07-1.07-1.61-1.6l-1-1c-.49-.49-1.17-1.18-2-2-1.33-2-1.29-3.24-1-4a9.25,9.25,0,0,0,1-2,4.53,4.53,0,0,0,0-2c-.18-1.07.25-2.87,3-6,5-3,6,5,6,5l4.19,7a7.42,7.42,0,0,1,1.81,2A4.11,4.11,0,0,1,851.5,771.5Z"/>

    <path id="unknow1" class="cls-1" d="M897.5,528.5l9.07,11.5,3.93,4.5,2,2a14,14,0,0,0,1,4c.76,1.81,1.72,3,4,6,0,0,3.5,4.22,7.75,4.61,0,0,1.25.39,1.25,6.39,0,0-2.5,5.57-1.25,7.78a4.41,4.41,0,0,0,2.25,3.22,27.36,27.36,0,0,1,5,4l-2,4-1,6s-1.5,4.1-4.25,3-8.75,1-8.75,1-5,4-4,7,5,6,5,6l7.75-2.33s7.39,1.33,7.82,2.33,2.43,2,1.43,8,1,9,1,9l5,7,2,3-2,15v5s2,5,3,6l9,9s3,6-1,8v7c.32,1.32.66,2.66,1,4s.72,2.76,1.08,4.12l1.92,8.88-3,6c-2.25,2.18-2.69,5-1.51,6.64a3.86,3.86,0,0,0,2.51,1.36l5,3s.87,3,3.44,0l7.56-3,4-2h6s6,2,7,5v5.73s-1,5.27,4,7.27c0,0,7,0,8-2s4-3,4-3,9,1,10,3l5,3,4,3h8l2-2a35.48,35.48,0,0,1-1-7c0-3-4-12-7-12s-9-8-9-8-3-1,0-5,0-9,0-9l-2-3,2-5v-5l4-3-2-6s-4-10-6-9-8-6-8-6a29.56,29.56,0,0,1-2-9h0l-2-7,3-5v-4l4-3v-7l4-4a8.68,8.68,0,0,0-2-9c-4-4-3-10-3-10s-5-10-7-11-11-1-11-1-10-4-11-9l-7-9-2-9-3-3s-3-3-5-1a6.19,6.19,0,0,0-2,4l-1,5-3,4-4,3-4,1h-4l-4-4,1-4,1-5,1-7v-3s1-5-5-4c0,0-4,4-7,0a10.14,10.14,0,0,1-2-8s-2-5-9-2a5.72,5.72,0,0,1-4-1,5,5,0,0,1-1-1l-2-2-1-2-2-1h-2l-2-2-1-2h-1.93A3.72,3.72,0,0,1,897.5,528.5Z"/>

    <path id="egypte" class="cls-1" d="M900.5,521.5H913l8.51,1,3,2H931s16.46,5,18.46,7l16-2,4,7,2.07,3.5,10.93,6.5,5-3s4-1,6,0,13,0,13,0l18-9s5.69-3,9.34-.5l.66,2.5,2,2v2.77l3,3.23,3.27,2,2.73,3,4,3,3,2s2,1,1,6c0,0,3,2,3,4s10,6,10,6l5,3v5.61l1,5.39,3,2,4,2,3,2,4,2,4,1,4-1,2-1h2l2,1v1.82l1,2.18a12.13,12.13,0,0,0,5,1c3,0,4-1,4-1s14-1,16-7h2l3,1,2-2,2-1,1,1-1,2v2l-3,3,1,3,5,4,3,4a4.33,4.33,0,0,1,2,4c0,3-3,6-3,6l-2,4-6,7-2,5-1,3v4l-1,3-1,2-1,2-8-1s-5,1-4,2-4,7-4,7l-3,4-7,4-4,1-2,4v2l1,6v9l-3,2-5,4-3,3-2,3-4,1s-7,3-9,4-1,4-1,4l-2,4s-3,3-5,0-3-9-3-9l-2-8h-10l-3-1-9-6-2-2-2-8h-8l-4-7-2-5-4-3-4-1-3-2-3-10-1-7,3-6,4-4,1-5,1-2,2.51-7.33a11.49,11.49,0,0,0-3.51-8.67c-4-4-2-8-2-8l-6-6s-2-5-6-5a55.27,55.27,0,0,1-9-1s-8-4-9-6c0,0-2-2-2-3s-7-9-7-9l-2-9-4-4s-4-2-5,2l-1,3-1,3.81-2,3.19-5,4-4,1h-4l-4-4s4-16,3-18,2-5-5-5c0,0-7,8-9-8,0,0-2-5-9-2,0,0-2,2-6-3l-2-3-2-1h-2l-2-2-1-2-2,1a8.21,8.21,0,0,0,1-3A7.81,7.81,0,0,0,900.5,521.5Z"/>

    <path id="unknow2" class="cls-1" d="M914.5,820.5l1,4s3,4,5,4,7,0,8,1,6,12,7,12l1,5,3,2s6.29,3,11.15,0l4.85-3-2-3-7-4-4-2-3-1.33s-2-7.67,0-8.67,5-5,5-5v-5l7-7,5-5,4.5-3.72,2.5-.28,2,2,3,4,1,5v1.94l4,1.06,6,4,3,4s3,3,6,1l2-2,2,1v3l7,5,3,1,2-2h5l5-5,5-4,4-4,5-3h2l2-3v-2.21l1-3.79,2-2,2-4,2-2,1-2s1-4,3-4,5-2,5-2-1-2-2-2,1-3,1-3l2-4,3-5,2-3,1-2,5,1h3l1-2,4-1,2-3-1-2-2,1-2,1h-2l-1-3-3-5v-4l2-4,5-4,3-3s1-2-2-5l-2-4-2-3h-5.09l-1.91,2-2,2s-2,4-7,2-4-2-4-2l-3,1-4,1-3,1-2-1-2,2h-8l-9-6s-5-3-10-3l-3,2-1,1-2,1-4,.92-1,.08s-7-2-5-7v-5s1-2-4-5l-2-1h-7l-11,5s-3,3-4,0l-5-3s-5-2-3-5l-5,18-4,5,4,9v9l-11,6-1,4,3,10-5,6-5,2-1.25,6.81-3.75,5.19s-6,6-8,6-3,4-3,4v8.24l2,7.76Z"/>
    
    <path id="Africaine" class="cls-1" d="M859.5,876.5l7,3,9,2H881s3.54-1,4.54,1,5,2,5,2l4.63,1.69v11.53l-2.63,7.78s-2,4,0,6l1,4s5,6,4,16l1,1h1.17s2.83,5,2.83,7-3,6-3,6v4l1,3v6l1,4s0,4,3,6l2,3,2,4,1,2,2,5,2,4,1,1,2,1-1,5h-3.17s-.83,5-2.83,6-4,8-4,8a14.63,14.63,0,0,0,3,5c2,2,6,3,6,3s-3,13-4,13-5,3-5,3a7.91,7.91,0,0,0-2,7l-5,5-4,5s-2,5,3,4,2,2,2,2l-1,2-1,1,2,2-2,5s-2,2,1,3l2,2s2,2,5-2l1-1,3-1,2-1,1-1,1-2,2-1,3-1,1-3,1-2v-2l2-1,1-1,3-1,1-2,1-2,1-3v-1.25l-3-.75-1.25-1v-2.27l1.25-1.69h2l2,1h1l2,2,2,1v-1.27l1-1.73,1-1h3l1,1v1.35c0-.35-1,1.65-1,1.65h-1v2l1,1,3-1,1-3,2-2,1-2v-3.12l1-2.88,3-2,3-3,4-2,6-2s5-2,6-5l2-1,2-1,2-1v-2.66l-1-1.34-1-3v-2l1-3-1-4-1-5v-3l1-3,3-3,1-6v-7l2-6-1-7-2-2,1-2v-2l1-4v-5l1-2.38,1-2.62,2-4,2-6,1-4,3-2,1-.94-2-4.06-1-5v-2l1-5,2-3.5v-3.12l2-1.38h1l-1-4,1-3.26-1-1.74-4-3-3-2-3-1h-1l-2,1-3.91-4-.09-3v-3l-2-2-2-1-2-5v-5l-3-3v-4h2.57l2.43-2,2-3v-2h-4.57l-5.43,2-2.5-.93-5.5.93s-10,9-19,1l-.88-4.42L928.5,829.5a24.61,24.61,0,0,0-8.46-1.07l-4.54-3.93-1-4-2-1-6,17s1.9,3.91-6,5c0,0-7-2-9-1s-8-4-8-4l-6,4-2-2s-5.35-.33-9.67,11.33-9.33,22.67-9.33,22.67Z"/>
    
    <polygon id="ile_egypte" class="cls-1" points="1147.5 646.5 1142.5 656.5 1140.5 658.5 1142.5 663.5 1143.5 667.17 1141.5 668.5 1143.5 674.16 1145.5 680.5 1146.5 684.5 1149.5 685.5 1152.5 686.5 1155.5 687.5 1158.5 689.5 1158.5 693.82 1159.5 696.5 1162.82 696.5 1164.5 693.5 1164.5 691.74 1167.5 689.5 1168.5 688.5 1170.5 686.5 1169.5 681.5 1170.5 677.95 1172.5 673.5 1174.5 672.5 1172.5 667.5 1169.5 662.5 1166.5 660.5 1166.5 657.5 1166.5 655.5 1166.5 652.5 1165.5 651.5 1163.5 648.5 1162.06 646.5 1160.5 643.5 1159.5 641.5 1159.5 638.5 1157.5 638.5 1154.88 638.5 1151.48 638.5 1150.5 641.5 1151.5 644.5 1147.5 646.5"/>

    <path id="unknow3" class="cls-1" d="M888.43,528.5l-9.93,23-4,4-8,3-8,2s-4.41-.88-6.71,4.06-3.29,6.94-3.29,6.94l-2,2-3,1h-3.26l-2.74-4-5-2-3-1-1,3-3,3h-4l-5-3-5-1h-7l-5,1-2.54,4-4.46,4-6,2H761.43s-5.93,1-5.93,4a7.65,7.65,0,0,1-2,5l-2,3-6,2-1,2h-2.77l-5.23-1-5.26,1-2.74,1v2.3l-2,5.7-2,4-3,4-2,2s-1,4.28,0,5.14l2,6.86,1,3-3.44,12-2.56,5-5,2-1,1-2,8-3,4v3.07l2,3.93s2,6,2,7v5l1,3-1,3-9,11s-5,5-2,9,1,11,1,11h6.66l1.34-1,1-1,1-2,2-2s5-4,11-2l3-3a3.66,3.66,0,0,1,5-.16,39.08,39.08,0,0,0,5,3.16l4,1,1-2,4-5,3-3,7-3,5-4,3-5,3-6,1-4,4-1,3-4v-5l1-5,2-1,4-2,5-2,6-3,2-1,3-1,3-4,2-6,1-5,2-5,4.2-3,4.8-6,.84-.84.16-3.16,1-2,2.35-2.11,1.65-.89v-2l2.32-.77,4.1-.23h11.77l6.81-3,.85-2.36,5.15-5.64h17l8-3,.62-5.57s.52-6.35,6-7.39,6.36-3.52,6.36-3.52,1.07-6.52,4.07-7.52v-5l1-41S891.35,530.5,888.43,528.5Z"/>

    <path id="maya_azteque" data-name="maya&amp;azteque" class="cls-1" d="M885.5,522.5H864.19l-7.69-6-4-7-3-3-4-3-8-2-9-2-10-4-5-7s-6,0-8,1-5,5-5,5l-2,2-8,3-5,1-4-3-7-5-11,1-4,2-5-2-3-1-4-3-6-2H729.4l-4.9-4-3-5a7.59,7.59,0,0,0-9-3s-1,1-1-4l-1-2v-1.93l1-2.07,1-3v-5l-1-3-4-2-4-3-3-1-9,1-3-4s-4-2-6,2-7-1-7-1l-7-3-3-3s-4-3-5,1l-8,7-5,3-1,2-1,3v2.85l-2,4.15-2,2-4,1-8,3-8,5s-1,3-8-1-13-7-13-7l-6,2-4,3-9,3-6,3-4,5-2,4-5,1-4,2-2,3-6,4-8,5-9,5-4,4-1,2-1,4-3,3-1,2,2.78,1H530s6.52,1,8.52-5c0,0,10,5,12-3h29l1,2,2,3h2l.19,3.06-3.19,1.94-2,1a2,2,0,0,0,2,2c2,0,4-2,4-2l2-1,1-3v-2l1-2,2-2,3-1,3-2,3-2,3-3h2l4,2v2l-1,3,2,1,2,2,5,4,5,3,3,2v7h2.85l6.15,2,3,3,1.62,1.5,5.38-.5,7-1,4-3,3-2,6-1,2,2,3,1,3,2,7,4,1,3-2,2-4,2s-4,6-12,1l-6-4-2-1-2,2-2,2-13.37,3-2.63,6-4,12-1,6s-2,9-6,11h-7.06l-5.94,2-6,1-3,6-4,6s-4,4-7,5-9,1-9,1l-4,4s-7,3-15-2l-20,9-5,1,4,2,.11,2-.11,1-6,3-22,10-12,4-7,1h-1.93l-4.07,2-4,2-4,1-3-1-5,8-4,3-4,4-1,2-1,3-1,6-2,6-2,3-3,5-5,9V714s-6,4.46-13,3.46l-3-1-5,3-4,2h-2.8l-2.2,12,1,10-3,7-3,4-1,1-1,5v2.44l-2,1.56-4,2s0,11,6,5h2s5,3,3,6h-4.3s-8.7,4-5.7,10,4,14,4,14,0,3.76-5,4.38-4,5.62-4,5.62l1,13v5l4,3,8,6-1,3-1,1,5,8v2h1.07l.93-3,4-1s3,1,0-4,0-7,0-7,2-2-1-4-5-7-5-7l-1-13,5-4,1-2,1-3v-3l1-3,1-1-1-2-1-2v-4l1-2,1-1,3-1h2l3,1h3l1-2,1-1,1-2,1-1h2l1,1v1h2l2-1,2-1,1-2-1-2,2-4,1-2,1-2v-4l-1-4,2-6,1-2-1-3-2-2v-7l1-1,2-3,4-4,3-5,1-3v-6l2-2,5-2h15l3,1,4,1s3-1,3-2,4-6,4-6l2-4-1-5-3-2-2-3-1-2-1-7v-3l1-3,1-3,2-2h2a3.49,3.49,0,0,0,2,1h2v4l1,2v3l1,1,1,1,2,1,1,2h5l2,1,3,1,4,1,3,3,3,4,3,4,5,5,1,1h3l4-1,4-1,3,1,5,2,5,2h5l5-4s6-4,13,1l4,7,2,3,1,1h5l2-1,3-1,4,1h1l-1,1h-7l-1,1-2,1h-2l-2-1-3-2-2-3-2-5-2-2s-9-1-15,4l-1,1h-5l-10-4h-4l-8,2-4-2-6-6-2-3-2-2-1-2-2-3-8-2h-4l-3-2-3-2-3-1-2-2-1-3,1-3v-3h-2l-1,2-2,2-1,2,1,2,1,3v6l1,2,3,1,2,2,1,3-1,6-3,7-2,2-3,1h-4l-4-1h-3l-4,1-4-1-6,1s-3,2-3,4-4,10-4,10l-7,8-1,2v5l2,2,1,4v2l-1,2-2,2,1,4v8l-2,3v4h2l3,1,2,1,3-1,3-2,4-2,3-1,3,1,4,2,4-1,6-3,4-3,3-6,2-6,2-3v-2l-1-3-3-3-3-3s-4-3,2-3h12l2,2,1,4v6l7,7,2,1h4l5,1,7,3,4,2,6-1,6-3,5-1,6-2,4-3h14l4-3,2-1,5,1,5,2,10,8,1,1h10l2,2,5,1,6,6,1,1v6l1,2,9,3,7,1,6-1,3,1,3,3h4l3-3,7-6,1-3,2-2,4-3,12-6,3-6v-5l5-9,1-3-2-8-4-8-2-5,3-4,.52-6.94-2.14-5.15s-1.9-2.15,1.86-7,9.76-11.88,9.76-11.88l.65-1.94-.65-4.06v-5l-3.09-9.14L705.5,664l.23-1.81,2.77-3.7,2-8,5.42-2.77,3.37-6.07,3.21-11.16-3-9.86-.38-2.81.38-2.33,3.94-4.58,2.74-4.79,1-2.5,1.11-3.17.23-3,5.71-1.56,1.77-.34,6.89.9h1.63l1-2,6-2,1.41-2.11,2-3.09.59-2.8.86-1.83,1.14-2.17,1-4,4-5,2-4s24,1,25-11l3-5,3-3.85,1-1.15,8,2,3-1,4-2s5-3,6-3,7-1,7-1l7.09-1.5,1.91-2.5h9l9,1,5-2,6-2,3-2h6l6.58-4,6.94-3h1.48a3.7,3.7,0,0,1-1-2A3.33,3.33,0,0,1,885.5,522.5Z"/>
    
    <path id="grecques" class="cls-1" d="M886.5,518.07l-5-5.57-5-5-4-3-3-2v-8.24l-5-5.76-6-2h-3l-3,1-4,1h-3l-3-1-3-1-2-1-2-1h-7.17l-4.83,1-4,2-4,1-3.23,0-3.92.29s-3.12-.9-5.48,2.9a14.73,14.73,0,0,1-5.8,5.32l-4.42,1.66-5.42,1.46-1.73.35-3.64-2.73-4.72-3.38-2.64-1.89-4.55.41-6.45.59-4,2-5.94-2.31-2.91-1.33-4.42-2.78-4.73-1.58H729.4l-4.9-4-3-5s-4-5-9-3l-.91-1.84-.09-2.16-1-2v-1.93l1.42-3.33.58-4.47-1-5.27-5.86-3.39-2.79-1.83-3.35-5.78v-4.85l-6-6.15-3-3-2-4,1-3-2-5-4-3-4-1-3,2h-4l-5,1-3,1-2,2-1,3-2,2-3,2-2,2-4,2-6,2.06-5,1.94-3,1-3-1-3-3-3-2-10-4-4-2s3-9-7-18l2-5v-4l1-4,4,2h2l2,3,4,2,4,1,4-1,3-2h7l5-2.22,2.88-2.78,3.16-6,1-5,1-5,1-4,3-7,7-5,5-2,7,1,3,3,7,4,4,3h4l11-1s14-8,4-20l-6-3h-8.25s-3.75-2-3.75-6-6-15-6-15l-3-8v-2h1.7l1.3-4v-3l4-1a23.55,23.55,0,0,1,1-11s-9-5-9-8-1-14-1-14l3-3,1-2,5,1,5-5,9,2,5,2,2,3,1,3,1,3,7,5,3,1,3-3,5-1,3-2,3-1,3,2,13,8,1,2,2,3,1,5,1,4,5,4,5,4,2,4,2,1,2-1,2-1h1l4,4v4l2,4,6-2,4,1,4,2,6,4,5,2h5l4,1,8,10,2,5,3,7,3,9v11l-2,11-.6,6.79,1.6,3.21,6,4,4,1,4,3,6,10v9l6,8,9,7,4,6-1,23,1,3,3,4,5,6,2,5-1,5,3,9,5,7.63,2,7.37,2,3A3.23,3.23,0,0,0,886.5,518.07Z"/>
    
    <path id="celtiques" class="cls-1" d="M608.5,346.5l-4,3-2,1-3.92-2-5.24-2-7.84-3s-11-4-14-10-5-21-5-21l4-6,2-4,2-5,2-7-2-4,1-4,13-8,1-4-4-1,3.44-5,6.56-7,6-9s13-2,16-6,8,1,8,1l7,2,3,3,5,7,8,5,3,5s5,8,11,6,7,3,7,3l-1,11,2,6v1.88s8,2.12,9,4.12,0,13,0,13l-1,2v2s-1,0-1,2a20.34,20.34,0,0,0,1,5l1,4,3,3,2,6,2,7,4,5,6,1h6l3,3s4.95,6.52,0,11.76-9,4.24-9,4.24l-10-3-8-6-9-2-8,3-7,4-5,7-1,8-1,6-6,9-4.43,2.78h-4.61l-5-.78-4-2-2-3-3-1-4-1-4-1-3-5-2-8,1-4.72,3-3.28-2-3,1-3,2-3,5-5v-4l-1-4-5-8-4-2-1,5,2,.52,2,1.48,1,3Z"/>
    
    <g id="nordique">
        <path id="nordique_territoire" class="cls-1" d="M961,218.4l-1.5-3.9-2-2-1,1-3,2-3,1h-6l-4-2h-7l-4,3h-3l-4-6-1-2v-7h3.07l1.93-2v-3l-3-3.05-5-2.95-3,1-8,5h-1l-3-8-1-2,1-2,2,2,1-4-1-4,1-2h1.2l-.2-7h1.9l2.1-1h2l1-2-2-3-1-3-3-4-2-3-1-3,1-3,4,2h2l2-1v-2l-2-3-3-4-4-2-9-1-6-10,4-6h1.39l2.61,3,4.48-3-1.48-4-1-10-2-6-1-6,2-5-2-1-2,1h-2l-2.24-1-2.76,3-1,4-1,2-2,3.73-1,1.27-7,1-4,4-2,2s-12,6-18-5c0,0-4-1-5,2l-2,2-2,2-3,1-3,1h-4l-4,2-3-1-3-1-3-4-3-2-2-1-2,1-4,3h-4l2,1,1,2,1,2v3l1,1,1-1h5l1,2,2,3,3,2,2,1,2,1,3,1,3,1h1v8l-2,4-1,3-1,4-1,2h-2l-3-1h-7l-8,3-3,.85-3-4.85-2,1v4l-5,3-6,2s-3,1-3,6l-2,2-2,1-2,2-2-1h-2l-1,1v7.85l1,1.15h3l2,1,2,2,2,2,2,2s2,3,4,0l3-3h4l2-5v-2l3,1,5,1,3-1h2l2,4,1,4v5l-1,7,1,3,1,2,2,1,2,3,3,3,3,7,1,3,2,1h2l4,3,5,4,3,6,2,9,1,9v10l-7,9h-5l-2,6v2l3,4,1,3-1,3-2,8-1,6.21-1,1.79-6,2-1,1-2,9-1,5v3l4,10,1,9v8l2.1,6.3,1.9,5.7v10L829,390.63l1,2.76,1,1.38,5.59,3.73,3.44.86,3.94,2.67,6.31,10,.31,9.52,4.56,6.08,2.7,2.9,4.42,3.44,3.71,3.17,3.11,4.66.48,1.1-1,22.13.71,2.7,8.27,10.82,1.79,4.48-.79,5.52,3,9,5,7.63,1.53,5.63,1.47,2.74a1.6,1.6,0,0,1,0,1,1.49,1.49,0,0,1-.29.47,6.41,6.41,0,0,1,1.48-.76,6.52,6.52,0,0,1,2.81-.3v-5.85l-1-7.56L893,488v-7.56s.5-8-3.5-10v-5.91l-2-7.09-3-7,2-2.73,4.76-8.35,3.24-4.92,1-2,2-2.11,3-9.89,1-6,6-3,6-2,4-3,2-2,5.75-2.27,3.25-1.73,3-4,1.9-5.21,3.1-5.79a15.3,15.3,0,0,0-2-10l-7-7-1-3,2-3,2-5,1-5v-7l1-4,3-2,5-2,3-2,3-4,4-4,2-5-1-6-2-6-6-10-2-7,2-5,1-6,2-3,3-6,1-3-1-10-1-2h-2.39l-1.61-4,1-3-1-3-1-4,2-2h1.18l-1.18-4v-2h2.74l2.26-1,2-.8,2-2.2,1-3H961l1.5,1v-4.44ZM838.5,173.5l-2,1-2,1-1.35-.89-.65-2.11-2-2-1-3v-3l2-1,.66-1.2h1l2.35,1.2,1,2,2,2,2,2-1,2.13S840.5,172.5,838.5,173.5Zm12-17v4c-5,5-8-2-8-2l1-4-1-2-2-2-1-3,1-2,2-4.63,1-3.37,2-2,6,3,1,4a18,18,0,0,0,3,5.32c2,2.32,0,5.68,0,5.68Zm20,32a3.36,3.36,0,0,1-1,1.41v9.59l-.5,1.89-.5.11a8.6,8.6,0,0,1-3,0l-4-2a4.35,4.35,0,0,1,0-2,4.53,4.53,0,0,1,1-1.92V189.5l-1-3-1-2.26L858.44,183a2.53,2.53,0,0,1-2.05-1,2.41,2.41,0,0,1,0-2.7l1.28-3.78.83-4,2-5,1,1,1.94-.26,1.32,1.66.74,1.6v8l2,2,1,1,1,1,1,3.59A3.58,3.58,0,0,1,870.5,188.5Zm5.88-53-1.88,4-1,4v3s.4,2.8-1.8,2.4L869,148l-1.41-1.27v-3l1.91-2.21a6.52,6.52,0,0,0,1-4l-1.5-.31c-1.8-.35-2.44-.4-2.5-.69s.09-.45,1.09-1l3.91-6s1-2,5-1l1,1ZM919.32,241c-5.17,3.45-6.52,11.55-6.52,11.55-6.69,3-8.3,0-8.3,0L901.78,248s-1.28-9.52-.28-11.52-1-7-1-7l-3.72-3.87-1.28-2.83v-5.3l2.56-15.87c-.43-1.87,6.44,7.87,6.44,7.87l-1,9,6,5c10-5,10,0,10,0s-5,4-.18,9.22S919.32,241,919.32,241Z"/>
        
        <path id="fleuve_nordique" data-name="fleuve nordique" class="cls-1" d="M917.47,242.53s-2.76,9.64,2.14,11.3,9.92,10.67,9.92,10.67l4,20,6,7,1,7,3,2"/>
        
        <path id="île_nord9" class="cls-1" d="M798.5,193.5l-4,5v3.13l2,6.71a33.61,33.61,0,0,1,5,7.16h1l1-3s2-4,1-6,.28-6.59.28-6.59-5-5.49-5.14-6.95Z"/>
        <path id="île_nord8" class="cls-1" d="M748.5,134.35v6.52h5v-2.29h4.38V131.8S748.5,131.21,748.5,134.35Z"/>
        <path id="île_nord7" class="cls-1" d="M737.5,151.5l-3,8-7.8,7-.2,6v5.22s9.35-1.09,12.67,6.35,2.33,8.43,2.33,8.43l-1,4h4.34l1.66-5,7-5-3-16s-3.78-1.4-3.39-8.2L744,151.5Z"/>
        <path id="île_nord6" class="cls-1" d="M773.76,131.76l4.25-3.54,3.49-1.72,2.18,5.26s1.28,5.9,2.55,6.82-1.14,2.29-1.14,2.29-4.59.63-3.59,3.63-3-2-3-2l-.49-7h-4.25s-5.42-3.48-2.84-3.74S773.76,131.76,773.76,131.76Z"/>


        
        <polygon id="île_nord5" class="cls-1" points="750.5 120.5 753.19 123.58 750.5 125.28 748.5 125.28 748.5 120.5 750.5 120.5"/>
        
        <polygon id="île_nord4" class="cls-1" points="760.5 155.5 765.5 151.5 769.5 158.26 768.5 161.5 766.5 163.5 763.5 163.5 761.5 160.5 760.5 156.94 760.5 155.5"/>
        <path id="île-nord3" class="cls-1" d="M750.85,149.28s1.65,5.22,3.65,4.22.67-6.48.67-6.48S751.19,146.07,750.85,149.28Z"/>
        <path id="île_nord2" class="cls-1" d="M755.5,111.5l1,4-2,3S752.5,112.5,755.5,111.5Z"/>
        <path id="île_nord1" class="cls-1" d="M766.5,104.5l-3,5,3,3.31v5.39l1.3,2.3s2.7,1,4.7-3,0-3.56,0-3.56l3-5.38s-3.55-3.91-5.28-2-.72-2.07-.72-2.07l-1-1h-1Z"/>
    </g>
    
    <path id="unknow4" class="cls-1" d="M895.74,515l2.76-6.47,4-10,3-7,2-3s8,2,13-16l5-3,3-2,5-2,5-2,2-1V458l2-3.48,2-4,1-3,2-1,4-2,6-4,7-4,8-6,2-2,1-4,1-5,1-3,1-3,5-5,5-5,3-5,3-5,4-5,4-3,1-4,1-2v-3l-2-4v-5l-1-4s-1-8-15-9c0,0-2,0-1-5l3-2,2-1,2-1,1-3,3-3,1-5-2-8-2-5-3-6s0-2-3-2h-6.63s-2.37,0-1.37-4h0l-.23-9-.77-6-6-8,.63-15,.37-4,4-2v-7l.54-4.67s-3.42-1.66-5.48,0l-2.06,2.67s-3,3-5-2v-4s-4-6-7-5l-2,2v1s-6,0-8,10l1,2,.35,3.5.45,4.53.2,2-2.75,6.5-3,5.16-1.23,6.34-2,5,1.77,6.18,2.61,4.79,3.41,5.68,1.73,4.9,1.26,6.15,0,1.81-1.57,3.91-5.42,6.16-1.53,2.05-3.28,2.37-5,2-3,2-.91,3.62-.09,4.48v2.9l-.74,3.71-2.42,6.53-1.84,2.76.76,2.28,1.93,2.41,5.31,5.31s3,6,2,10L934.1,390l-1.36,3.13-1.19,3.25L929,399.82l-9.51,4.68-5.71,4.78-5.62,2-5.8,2.79-1,1-.83,4.95-3.08,10.38-1.86,2-8.89,15-2.25,3.17L886,454l1.59,3.85,1.16,4.1.74,2.62v5.91s5.64,2.91,3.32,22l-.3,7.65.84,6.86.14,6.94A1.88,1.88,0,0,1,895.74,515Z"/>
    
    <path id="unknow5" class="cls-1" d="M897.5,516.75l16-13.25h25.23l4.77-3,10,4,14-14s4-6,11-4v-2s3,2,3,7c0,0,14,6,18,1,0,0,1-2.91,5-1.45s7,9.45,7,9.45l3,2h5l3-4s4,0,4-3,3-4,3-4l2,.68,4-2.68h1l3-4,5-4,6-7,10-13,1-1,7-3,5-6,1-2,1-9,2-3,1-6,1-4,2-3,1-1,1-1,2-1h5l3-1,10-1,8-4,7-7,2-2s-.06-7.39,0-7.46l-3-4.54-2-8-2-4s2-4-4-7l-4-2-5-6s-3-1-2-7a68.89,68.89,0,0,0,1-7,3.1,3.1,0,0,0-4-2s-8,8-10,7-4-1-6-5-5-11-5-11l-9-5-5-3-3-2v-8l-1-1-5-1h-3.7l-4.3-5-3-7s-4-7-7-7a12.68,12.68,0,0,1-6-2v-7s-4,3-5,5-2,13-1,15,0,10,0,10-1,2-5,2-3,4-3,4v1h-6l-4,4-5,1L997,337l-.51,2.53-3,3.11-1,2.89-6.82,3.88s-1.18,5.12.82,5.12,9,2.2,9,2.2,6.24,2.94,6.59,9.37l.36,5.9,2,4.53v3l-1.06,2.23-.88,3.52-3.64,2.93-4.42,5.32-5.88,9.8-9.81,9.89-2.31,6.31-1.89,8.56L971.83,431l-6.78,5.09-11,6.7-3.77,2.32-4.79,2.39s-4,9.95-5,10.48v4.2l-2.73,1.61-9.15,3.66-8.12,5.05s-3.44,16.67-13.22,16.33L896,514.38S898.5,516,897.5,516.75Z"/>
    
    <path id="japon" class="cls-1" d="M898.1,516.25l15.4-12.75h25.23l4.77-3,10,4,14.32-14.42s4.68-5.58,10.68-3.58v-2.16s4,5.16,3,7.16c0,0,15,6,18,1,0,0,5.2-7.87,12.1,8.07l2.48,1.65,5.42.28,3-4s4,0,4-3,3-4,3-4l2.14.59,3.86-2.59h1l3-4,5-4,4.55-5.31L1061,461l7.46-3.46,5.17-6.34.83-1.66.93-8.4,1.71-3.06,2.36-10.54,2.27-3.27,1.73-1.73,2-1h5l2.62-.87,11-1.42,7.42-3.71L1120,407l.48-7.52-3-5-2-8-2-4s3-5.49-7.49-8.75l-5.16-5.83s-4.35-1.42-1.35-14.42a3.1,3.1,0,0,0-4-2s-7.09,7-9,7c0,0-5.76-.63-6.86-4.81l-5-11-16.86-10.07-.23-8.15-.75-.75,2.75-14.25s6-5,7-8a4.37,4.37,0,0,1,4-3l6,5h2l2-2,3-2h7l4-2s-3-9-4-10,0-16,0-16-6-2-10,6l-1-1-2-6s7-7,7-9l4-2H1095l5.51-6H1105l3.52,1,2,3v8l1,2,4,2a23.86,23.86,0,0,1,3,11c0,6,8,2,8,2l4-4,1,1,3-3s4-7,4-11c0,0,3,2,7-2l5,7,2,1h6l4-2,11-7,4-3,4-2,5-3,2-2s3-4,10-4h3l5-3h9a7.27,7.27,0,0,1,5,5l2,3,1,1v2.24l4,8.76v4.28s0,3.72-5,11.72l1,3,8-2s5-2,7,3l6,6,1-1-1-5-1-4s1-3,4-3,5-6,5-6l1-4s4,0,6-3c0,0,2-9,11-5l1,1v1.05l-3,4.95-1,1,1,2s3,8,11,2c0,0,5-2,5-12,0,0,5-4,5-7s4-9,4-9l5-9a5,5,0,0,1,5-1l4-1h2l3-1,3-5s6-7,6,0l-3,5,3,14,4,3,6-3,5-5,6-2,1,3,3,3,1,4-2,6-1,7,3,5v4.41l-3,4.59-2,4,1,1,3,3,1,5,2,1,3,1,2,1,1,2-4,2-4,1-3-3-3,4,1,4-3,3v3h-8s-3,11-12,4l-1-1-2-5-2-2s-4-2-6,1l-1,5v7l-2,2,1,4v2s6,1,6,4h5l3-4,10,3,5-3,9,1,9,5-9,12s-2,5,0,7,2,7,2,7l-5,10a21.4,21.4,0,0,0-1.52,2.82c-.48,1.18.52,3.18.52,3.18v3l-2,3v2l-3,4-2,11s-5,9-10,8h-1l-1,12,1,6-1,3,1,5v6l-3-1-2,1-2,2-7,1-1,1-1,5-1,5v7s5,2,5,5-6,7-6,7l-3-1v-4s1-6-4-3a10,10,0,0,0-5,8l-7,26-5,18s-7,11,3,20l4-5s5-4,5,2a4.37,4.37,0,0,1-3,4,26.39,26.39,0,0,1-7,1l-1,1s-3,14-13,14c0,0-3,3-4,10s4,12,4,12v3l-2,3-1,1v3l-2,2v5l-3,6-1,6-5,4s-2,1-1-4l2-3s0-1-2,0-5-1-5-1l-8-7-9-3s-10-7-10-12v-16l-2-16v-5l6-10s1-3-1-5a17.27,17.27,0,0,1-3-4l1-2h5l9-16v-9l-1-9s6-19,11-21v-5l-1-5v-10l4-8,16-12,3-3,1-3,5,2s6,0,7-5a29.14,29.14,0,0,0,.7-7.88l-2.7-2.12h-6l-1-2h-8l-7-2s-10,8-7-4,6-18,6-18l6-2,6-7,4-1a11.37,11.37,0,0,0-6-11h-9s-9-5-9-7-7-6-11-4a42.84,42.84,0,0,1-10,3l-5,6-1,5v4s-3,6-5-1l-6-3s-11-10-17-2c0,0-14-3-13-10s-2-10-2-10-3-3-5-2-3-17-21,1l-2,3-8,3s-7,2-4,12l2,7,1,2s3,3,1,6-1,7-1,7,4,2,0,6c0,0-6,2-7,6l-2,3h-8s-3,3-3,6v1l-1,1"/>
    
    <g id="slave_et_unknow" data-name="slave et unknow">
    
        <g id="unknow6"><path class="cls-1" d="M898.21,516.05l14.94-12.37,25.69-.38,4.77-3,10,4,14-14s4-6,11-4v-2.92a11.65,11.65,0,0,1,3,7.92s15,6,18,1,7.43.27,7.43.27l4.1,6.52,3.05,2.93,5.42.28,3-4a4.37,4.37,0,0,0,4-3,6.93,6.93,0,0,1,3-4l2.14.58,3.86-2.58h1l3-4,5-4,9.89-11.8a8.59,8.59,0,0,1,1,1c1.09,1.3,1,2,2,3,.55.55.79.54,1,1,.35.75-.06,1.26,0,2,.12,1.56,2.2,2.6,3,3a9.66,9.66,0,0,0,4,1c7.25.15,12.85-5.22,17-3a5.18,5.18,0,0,1,2,2,18.68,18.68,0,0,0,9,6c3.31.95,8.11,1.22,11,0,.73-.31,2.51-1.21,4-1a12.8,12.8,0,0,0,2.22.09,4,4,0,0,0,.78-.09c1.71-.33,1.87-1.06,3-1a4.36,4.36,0,0,1,3,2,7.62,7.62,0,0,1,1,3c.6,2.89.46,3.84,1,6a13.85,13.85,0,0,0,1,3c1.66,3.35,5.34,6.46,6,7,0,.27.07.53.11.8l-1,5-7.9,11-1.1,5-11,7s-2,9,5,4l7-3,4,3,1,1-3,2s-4,6-9,6l-5,1-5,5-14,5-3,4s-2,3-5,1,0-5,0-5l2-2h2l3-3-4-5h-7s-2,5-5,5h-15l-2,2-6.65-4.74-2.76-2.91-3.44-2.26-3.15-3.32V538.3l-2-2-.66-2.5s-2.76-2-7.55-.25L1020,536.6,1007.24,543l-1.77.41-10,.27-3.49-.77-4.36.41-5,3-10.93-6.5-6.07-10.5-15.52,1.94s-13.76-6.12-17.62-6.53l-7.33-.41-3.53-2-7.62-1H900.61S900.81,517.8,898.21,516.05Z"/>
        </g>
    
    <path id="Slave" class="cls-1" d="M1060.5,461.5l8-4,5.49-7,1.51-10,2-3,2-10,3.62-4.62,2.38-1.38h5l3-1,10-1,8-4,9-9v-7l1-1s0-5,3-7h7.77l1.89-2.49s2.34-5.51,7.34-6.51c0,0,4-2.7,0-6.35,0,0-1.53-4.47,1.24-7.06,0,0,1.76-3.59-1.24-5.59l-3.41-10.6s-1-8.61,2.7-9.5a61.88,61.88,0,0,0,9.71-3.9s14.78-21.5,22.39-4.25c0,0,8.61-.75,7.61,11.25,0,0-3,7,13,11,0,0,4.68-8.66,17.34,2.17l5,2.5s3.1,7.32,5.39,1.83l.28-4.5,1-5,5-6s7.68-1.53,8.34-2.27,8.43-3.67,12.55,2.8l.57,1.44,8.39,5.94,9.15.09s7.08,3.87,6,10.44l0,.56-3.79.95-6.16,7-6,2.06s-15,34,1,22l7,2h8l1,2h5.74l3,2.12s2.3,12.88-7.7,12.88l-5-2-1,3-3.66,3.49L1248.5,434.5h-2s-1,2-3,0l-2-2s-3,7-7,5-8-13-8-13v-1s7-4,6-7c0,0-7,0-10,1h-1s-3-2-8-1l-4,3s2,11-5,16l-1,2v2l2,2s-1,6-4,8v1s5,8-6,17v9s0,6-4,6h-4s-3,10-6,10-2-3-2-3,0-9-6-14c0,0,1-6,3-8s1-5,1-5l-4,2-4,1-2,1-3-1a9.79,9.79,0,0,0-5,5,63.78,63.78,0,0,1-6,9l-13,7s-4,13-6,13l-8,5a24,24,0,0,1-4-4,15.75,15.75,0,0,1-3-5c-.89-2.68,0-3.38-1-7-.54-2-.88-3.25-2-4-1.88-1.26-4.48-.22-5,0a9.57,9.57,0,0,0-3,0,10.15,10.15,0,0,0-3,1,15,15,0,0,1-7,1,19,19,0,0,1-13-6c-1.37-1.52-1.6-2.37-3-3-1.8-.8-3.41-.29-8,1-7.14,2-7.91,2.1-9,2-3.62-.33-7-2.37-7-4,0-.56.39-1.24,0-2-.24-.46-.52-.45-1-1-.66-.74-.51-1.18-1-2-.82-1.38-1.83-1.16-2-2,0-.26,0-.79,2-3,.81-.88,1.52-1.56,2-2Z"/>
    </g>

    </g>
    
    <g id="cercle_de_montagnes" data-name="cercle de montagnes">
        <polygon points="782.95 476.71 782.05 476.29 785.58 468.69 791.83 474.12 791.17 474.88 785.93 470.31 782.95 476.71"/>
        <polygon points="787.5 489.91 786.5 489.91 786.5 485.75 785.31 486.07 778.81 477.63 775.99 489.09 775.01 488.85 778.34 475.37 785.69 484.93 787.5 484.44 787.5 489.91"/>
        <polygon points="782.2 516.9 780 515.21 780 511.71 778.05 509.75 774.42 503.37 768.88 509.82 768.12 509.18 774.58 501.63 778.88 509.19 781 511.29 781 514.72 782.8 516.1 782.2 516.9"/><polygon points="768.46 528.68 767.53 528.32 772.54 515.59 777.86 521.15 777.14 521.85 772.9 517.41 768.46 528.68"/>
        <polygon points="781.1 542.8 778.1 538.8 774.46 533.35 770.89 537.81 770.11 537.19 774.54 531.65 778.92 538.22 781.9 542.2 781.1 542.8"/>
        <polygon points="780.83 556.7 775.51 548.45 773.17 552.35 772.32 551.83 775.49 546.55 781.67 556.16 780.83 556.7"/>
        <polygon points="777.47 570.03 776.53 569.67 780.33 559.54 787.88 568.17 787.12 568.83 780.67 561.46 777.47 570.03"/>
        <polygon points="782.73 575.76 781.77 575.47 783.22 570.69 786.71 573.15 786.13 573.97 783.78 572.31 782.73 575.76"/>
        <polygon points="798.17 596.88 797.05 595.86 795.97 593.55 796.97 589.56 795.19 586 792.23 586 791 584.16 791 585.68 786.8 590.68 786.03 590.03 790 585.32 790 580.87 792.77 585 795.81 585 798.03 589.44 797.03 593.45 797.91 595.34 798.83 596.12 798.17 596.88"/>
        <path d="M804.16,605c-1.78-.83-3.21-4.48-3.82-6.31a58.79,58.79,0,0,1-6.52,6.24l-.64-.76c1.65-1.38,6.09-5.28,6.87-6.84l.57-1.15.36,1.23c.47,1.61,2,5.95,3.6,6.69Z"/>
        <polygon points="811.01 615.58 810.02 609.69 808.6 607.54 805.96 613.7 805.04 613.3 808.4 605.46 810.99 609.42 811.99 615.42 811.01 615.58"/>
        <path d="M833,634.5h-1c0-3.19-4.23-7.2-5.48-8.32l-1.9,1.9-3-1.18-1.31-2.3L818,629.71l-.9-.42,3.15-6.89,2.09,3.7,2.09.82,2.09-2.1.35.3C827.07,625.33,833,630.31,833,634.5Z"/>
        <polygon points="852.02 645.63 849.19 635.25 842.34 639.17 838.6 633.54 835.96 639.7 835.04 639.3 838.4 631.46 842.66 637.83 849.81 633.75 852.98 645.37 852.02 645.63"/>
        <polygon points="865.04 647.69 860.38 636.5 854.9 643.8 854.1 643.2 860.63 634.5 865.96 647.31 865.04 647.69"/>
        <polygon points="872.96 651.69 872.04 651.31 877.75 637.8 883.82 650.01 886.07 650.12 887.19 642.13 891.39 648.43 895.32 638.61 903.85 647.15 903.15 647.85 895.68 640.39 891.61 650.57 887.81 644.87 886.93 651.16 883.18 650.99 877.82 640.2 872.96 651.69"/>
        <polygon points="919.23 647.89 915.27 644.64 915.27 641.77 912.16 639.76 910.2 645.41 909.25 645.09 911.63 638.24 916.27 641.23 916.27 644.16 919.87 647.11 919.23 647.89"/>
        <polygon points="927.98 643.64 927.02 643.36 930.25 632.61 938.83 640.12 938.17 640.88 930.75 634.39 927.98 643.64"/>
        <polygon points="942.43 640.5 941.57 640 946.05 632.13 947.62 630.72 950.93 636.24 950.07 636.76 947.38 632.28 946.78 632.82 942.43 640.5"/>
        <path d="M948.94,627.73l-.88-.46c.08-.16,2-3.79,4.63-4.54a3.27,3.27,0,0,1,2.64.34l.47.35-.6.8-.42-.32a2.23,2.23,0,0,0-1.81-.21C950.76,624.32,949,627.7,948.94,627.73Z"/>
        <path d="M954.62,629.11l-1-.22c1-4.18,3.46-13.89,5.85-13.89h.26l7.15,10.21-.82.58-6.8-9.72C958.21,616.78,956.16,622.46,954.62,629.11Z"/>
        <polygon points="967.97 621.68 967.03 621.32 970.26 612.72 977.79 618.09 977.21 618.91 970.74 614.28 967.97 621.68"/>
        <path d="M979.25,613.63l-1-.26,4-15,.62.86c1.37,1.92,5.26,7.07,6.81,7.84l-.44.9c-1.69-.85-5.12-5.34-6.57-7.31Z"/>
        <polygon points="988.95 601.72 988.05 601.28 992.46 592.46 995.93 598.24 995.07 598.76 992.54 594.54 988.95 601.72"/>
        <path d="M1002,583.66l-.94-.32c0-.06,2-6,2-8.84v-1.29l5,5.45-.73.68-3.33-3.64A48.41,48.41,0,0,1,1002,583.66Z"/>
        <polygon points="1008.11 569.83 1007.12 569.69 1009.16 555.33 1015.22 562.46 1014.46 563.11 1009.84 557.67 1008.11 569.83"/>
        <polygon points="1014 553.57 1013 553.43 1014.49 542.59 1020.86 549.15 1020.14 549.85 1015.2 544.76 1014 553.57"/>
        <polygon points="1017.01 531.6 1014.1 516.88 1021.8 522.73 1021.2 523.52 1015.59 519.26 1017.99 531.4 1017.01 531.6"/>
        <path d="M1016.19,515h-1V504.12l.92,1.45c1.52,2.36,4.14,5.64,5.35,5.58l.08,1c-1.63.12-4-2.79-5.35-4.67Z"/>
        <polygon points="1010 488.5 1009 488.5 1009 485.8 1005.61 476.52 1011.44 479.31 1011.01 480.21 1007.39 478.48 1010 485.71 1010 488.5"/>
        <polygon points="1002 472.55 1000.88 460.17 1007.85 467.15 1007.15 467.85 1002.12 462.83 1003 472.45 1002 472.55"/>
        <polygon points="990 461.91 990 454.92 984.78 454.05 982.95 457.72 982.05 457.28 984.22 452.95 991 454.08 991 455.09 993.42 447.02 998.96 460.31 998.04 460.69 993.58 449.98 990 461.91"/><polygon points="980.01 450.61 976.79 435.58 983.58 439.03 986.48 443.21 985.66 443.79 982.9 439.81 978.21 437.42 980.99 450.39 980.01 450.61"/>
        <polygon points="950.93 430.76 950.07 430.24 953.18 425.12 960.27 419.21 962.98 428.74 962.02 429.01 959.73 420.96 953.88 425.83 950.93 430.76"/>
        <polygon points="966.01 439.5 965.02 439.34 967.17 425.37 975.87 435.17 975.13 435.83 967.83 427.63 966.01 439.5"/>
        <path d="M950.28,424.51c-2.69-1.3-4.49-8.36-5.08-11l-5.35,5.34-.7-.7,6.66-6.67.18.92c.54,2.75,2.45,10.11,4.73,11.2Z"/>
        <path d="M938.5,415c-1.49,0-3.11-3.89-5.59-11.07l-.4-1.16c-1.17,2.31-4.14,6.83-5.59,9l-.84-.56c2.84-4.24,5.82-9.05,5.92-9.74a.51.51,0,0,1,.43-.52c.48-.09.48-.09,1.42,2.64,2.34,6.76,3.9,10.26,4.66,10.4Z"/>
        <path d="M912.5,401v-1h0c.1,0,.31-.35.45-.56A4.84,4.84,0,0,1,917.5,397v1a3.86,3.86,0,0,0-3.73,2C913.42,400.51,913.1,401,912.5,401Z"/>
        <polygon points="910.14 402.85 907.01 399.6 903.58 401.11 899.51 396.29 894.34 402.81 893.55 402.19 899.49 394.71 903.87 399.89 907.24 398.4 910.86 402.15 910.14 402.85"/>
        <polygon points="890.15 406.56 879.47 396.18 870.49 404.18 864.23 398.23 857.91 405.94 857.13 405.31 864.13 396.77 870.51 402.82 879.5 394.82 890.85 405.84 890.15 406.56"/>
        <path d="M838.24,412v-1a.26.26,0,0,0-.17.05c.47-.36,1.9-3.77,3-6.72l.43-1.2,3.5,8.17-.92.4-2.5-5.84C839.26,412,838.58,412,838.24,412Z"/>
        <polygon points="837.83 421.92 832.27 413.39 827.31 420.38 826.5 419.8 832.31 411.61 838.66 421.37 837.83 421.92"/>
        <path d="M831.1,430.8c-4.66-6.21-9.51-11.29-10.38-10.85-1.41.7-1.72,3.52-1.72,4.55h-1c0-.18,0-4.32,2.28-5.45s8.84,7.44,11.62,11.15Z"/>
        <polygon points="808.97 434.66 808.03 434.34 812.38 421.26 817.94 431.26 817.06 431.74 812.62 423.74 808.97 434.66"/>
        <polygon points="809.07 444.75 802.65 433.75 799.98 442.64 799.02 442.36 802.35 431.25 809.93 444.25 809.07 444.75"/>
        <path d="M802,462.59,800.39,454l-1-.38c-2,.18-3.5-.25-4.44-1.28a4.4,4.4,0,0,1-1-3l-3.05,1.52L787.46,459l-.92-.39,3.57-8.44,5.07-2.54-.19,1a4,4,0,0,0,.74,3.08c.74.8,2,1.12,3.72.94h.12l1.7.68,1.72,9.13Z"/>
    </g>
    <g id="texte">
    <text class="cls-2" transform="translate(117.47 174.84)">Monde des dieux</text>
    <line class="cls-3" x1="90.6" y1="192.63" x2="468.34" y2="192.63"/>
    </g>
    <g id="montagnes">
    <g id="mont_japon">
    <path d="M1074.73,328.6l-1-.1c.31-3,.21-7.47-1-8.05-1.59-.8-3.35,1.8-3.36,1.83l-.84-.56c.1-.14,2.28-3.35,4.64-2.17C1075.42,320.65,1074.86,327.28,1074.73,328.6Z"/>
    <path d="M1084,345.5h-1c0-2.16-3-10.83-4.92-15.85l-3.29,5.1-.83-.54,4.35-6.77.36.93C1078.88,328.94,1084,342.44,1084,345.5Z"/>
    <polygon points="1109.02 355.62 1106.19 344.33 1099.79 348.91 1099.21 348.09 1106.81 342.67 1109.98 355.38 1109.02 355.62"/>
    <polygon points="1120.97 349.66 1120.03 349.34 1124.46 336.13 1129.84 341.13 1129.16 341.87 1124.91 337.92 1120.97 349.66"/>
    <polygon points="1127.09 368.35 1126.13 368.07 1129.23 357.42 1135.78 362.87 1135.14 363.64 1129.77 359.16 1127.09 368.35"/>
    <polygon points="1122.51 380.35 1118.68 369.55 1114.15 379.55 1113.24 379.14 1118.79 366.88 1123.45 380.01 1122.51 380.35"/>
    <path d="M1099,290.71l-.9-.42,6.51-14.11.41,1.16c1.39,3.89,3.47,8,4.47,7.89l.12,1c-1.92.21-4.07-4.7-5.11-7.41Z"/>
    <path d="M1116.51,295.52l-5-8.06-2.58,4.3-.86-.52,3.42-5.7,4.93,7.94,3.94-7.82.49.49c.06.06,6,5.88,10.15,5.88h0v1h0c-3.91,0-8.8-4.25-10.36-5.7Z"/>
    <polygon points="1133.91 286.75 1133.04 286.25 1138.44 276.74 1144.28 281.62 1143.64 282.39 1138.71 278.27 1133.91 286.75"/>
    <polygon points="1172.96 275.69 1172.04 275.31 1177.01 263.48 1183.91 273.21 1183.09 273.79 1177.24 265.52 1172.96 275.69"/>
    <polygon points="1199.03 266.68 1194.65 255.1 1190.05 264.72 1189.15 264.28 1194.76 252.56 1199.97 266.32 1199.03 266.68"/>
    <polygon points="1208.5 264.65 1207.55 264.35 1211.34 252.47 1215.95 262.29 1215.05 262.71 1211.52 255.2 1208.5 264.65"/>
    <polygon points="1202.92 277.77 1202.08 277.23 1207.98 267.85 1213.8 275.19 1213.02 275.81 1208.07 269.58 1202.92 277.77"/>
    <polygon points="1275.93 304.75 1275.07 304.25 1282.54 291.64 1285.97 301.33 1285.03 301.67 1282.31 293.99 1275.93 304.75"/>
    <polygon points="1291.95 297.73 1291.05 297.27 1296.97 285.51 1302.83 294.22 1302 294.78 1297.09 287.49 1291.95 297.73"/>
    <polygon points="1325.86 286.64 1324.9 286.36 1328.23 274.6 1336.2 281.63 1335.54 282.38 1328.76 276.4 1325.86 286.64"/>
    <polygon points="1318.99 263.62 1318.01 263.38 1320.67 252.43 1325.82 262.25 1324.94 262.71 1321.02 255.24 1318.99 263.62"/>
    <polygon points="1305.98 255.64 1305.02 255.36 1308.11 244.46 1314.1 250.08 1313.41 250.81 1308.63 246.31 1305.98 255.64"/>
    <polygon points="1294.09 268.92 1293.17 268.51 1299.54 254.37 1305.94 266.26 1305.06 266.74 1299.62 256.63 1294.09 268.92"/>
    </g>
    <g id="mont_unknow6">
    <path d="M1054.07,538c-4.54-6.68-6.82-7.43-7.78-7.3a1.47,1.47,0,0,0-1.07.94l-1-.3a2.44,2.44,0,0,1,1.86-1.63c2.13-.31,5.07,2.28,8.77,7.72Z"/>
    <path d="M1059.7,548.67l-1-.16,1.64-10,.7,1.19c.25.42,1.08,1.5,1.94,1.4s1.78-1.36,2.55-3.59l6.85-13.44,4.2,15.38h3.54l3.27,3.85-.77.65-3-3.5h-3.84l-3.73-13.62L1066.45,538c-.91,2.67-2,4.06-3.37,4.19a2.77,2.77,0,0,1-2.15-.94Z"/>
    <path d="M1094.5,547.62l-2.38-4.77a12.11,12.11,0,0,1-4.72-5.54l-2.38-2.6-4.74,5.61-.76-.64,5.46-6.48,3.32,3.67a11.43,11.43,0,0,0,4.45,5.2l.13.07,1.62,3.24,1.86-3.72.49.49a4.5,4.5,0,0,0,2.86,1.58h0a1.48,1.48,0,0,0,1.06-.4l.74.68a2.5,2.5,0,0,1-1.75.71,4.57,4.57,0,0,1-3.13-1.4Z"/>
    <path d="M1094,532.63l-1-.26c.83-3,3-11.28,3-12.87v-1.26l6.51,6.92-.72.68-4.91-5.21C1096.32,524,1094.09,532.24,1094,532.63Z"/>
    <path d="M1104,519.7l-.91-.4c1.77-4,3.46-8.75,3.09-9.47a.51.51,0,0,1-.09-.77c.39-.46.41-.47,7.75,5l-.6.8c-1.87-1.41-4.68-3.49-6.1-4.49C1106.94,512.66,1105.17,517,1104,519.7Z"/>
    <path d="M1113.93,508.61l-.89-.45,3.33-6.5.48.49c1.82,1.81,4.12,3.79,4.66,3.85v1c-1,0-3.45-2.28-4.87-3.66Z"/>
    </g>
    <g id="mont_unknow2">
    <polygon points="1031.99 764.17 1031.01 763.95 1033.17 754.7 1044.77 762.08 1044.23 762.92 1033.83 756.3 1031.99 764.17"/>
    <polygon points="1039.93 761.75 1039.07 761.25 1043.33 753.79 1046.78 756.08 1046.22 756.92 1043.67 755.21 1039.93 761.75"/>
    <path d="M1033.5,788v-1a1.16,1.16,0,0,0,.94-.42c1-1.16.81-4.25.65-5.34l-.18-1.21,4.89,3.72-.6.8-3-2.29c.08,1.42,0,3.78-1,5A2.18,2.18,0,0,1,1033.5,788Z"/>
    <path d="M1024.88,796.82l-.76-.64s4.06-4.91,4-8.67l0-1.17,5.78,5.29-.68.74-4.13-3.79C1028.5,792.45,1025,796.63,1024.88,796.82Z"/>
    <polygon points="1021.19 802.89 1014.33 797.38 1012.98 802.62 1012.02 802.38 1013.75 795.62 1021.81 802.11 1021.19 802.89"/>
    <path d="M990,814.68l-.94-.36,3.46-9.23,1.25,3.23c1.59-1.16,6.37-4.94,6.76-8.87l.14-1.33,9.27,13.09-.82.58-7.82-11c-1.32,4.67-7.22,8.59-7.5,8.77l-.51.34-.75-1.94Z"/>
    <polygon points="993.06 802.74 987.56 792.65 984.18 794.2 982.36 787.83 974.94 801.74 974.06 801.26 982.64 785.17 984.82 792.8 987.99 791.35 993.94 802.26 993.06 802.74"/>
    <polygon points="968 796.72 967.1 796.28 971.42 787.54 976.23 794.14 977.86 795.35 977.27 796.15 975.46 794.79 971.58 789.46 968 796.72"/>
    </g>
    <g id="mont_maya">
    <path d="M493.52,661.77l-.91-.41,4.92-11,2.28-3.49,7.63,4.85,1-8.05,3.19,2.17,6.23-10.59,2,7.1,3.81-5.84,2,4.09c0-1.41.14-2.86,1-3.39s1.78-.18,3.1.89l1.47.75,4-8.23,10.34,11.58-.75.67-9.35-10.48-3.84,7.81-2.51-1.29c-.92-.75-1.65-1.06-2-.85-.8.49-.56,3.5-.16,5.37l.88,4-4.38-8.92-4.06,6.21-2-7-5.58,9.48-2.72-1.84-1,8-8.13-5.18-1.7,2.6Z"/>
    <polygon points="557.89 624.53 557.08 623.95 557.65 623.15 560.84 617.74 566.19 621.01 565.67 621.87 561.18 619.12 558.49 623.7 557.89 624.53"/>
    <polygon points="542.04 638.45 541.06 638.26 542.9 628.85 550.92 630.86 552.78 619.47 560.35 626.08 559.7 626.83 553.48 621.4 551.73 632.09 543.67 630.08 542.04 638.45"/>
    </g>
    </g></svg>